<?xml version="1.0" encoding="utf-8" standalone="no"?><!DOCTYPE svg PUBLIC "-//W3C//DTD SVG 20010904//EN" "http://www.w3.org/TR/2001/REC-SVG-20010904/DTD/svg10.dtd"><svg xmlns="http://www.w3.org/2000/svg" width="1098" height="578" xmlns:xlink="http://www.w3.org/1999/xlink"><source><![CDATA[Title: Spatio Temporal Prediction
Data->>Krig:
Note over Krig: spatial prediction
Krig->>Forecast: 
Note over Forecast: temporal prediction
Data->>Forecast:
Forecast->>Spatio Temporal Prediction:
Spatio Temporal Prediction->>Map and Report:

Note right of Krig: verify \n spatial prediction
Note right of Forecast: verify \n temporal prediction
Note right of Map and Report: End user Interface
]]></source><desc>Spatio Temporal Prediction</desc><defs><marker viewBox="0 0 5 5" markerWidth="5" markerHeight="5" orient="auto" refX="5" refY="2.5" id="markerArrowBlock"><path d="M 0 0 L 5 2.5 L 0 5 z"></path></marker><marker viewBox="0 0 9.6 16" markerWidth="4" markerHeight="16" orient="auto" refX="9.6" refY="8" id="markerArrowOpen"><path d="M 9.6,8 1.92,16 0,13.7 5.76,8 0,2.286 1.92,0 9.6,8 z"></path></marker></defs><g class="title"><path d="M10,10C106.5,19.7 195.1,0.3 253.5,10.0C254.8,19.6 252.2,37.3 253.5,42.5C195.1,52.2 198.2,32.8 10.0,42.5C11.3,17.8 8.7,28.0 10.0,10.0" stroke="#000000" fill="#ffffff" style="stroke-width: 2;"></path><text x="15.03125" y="29" style="font-size: 16px; font-family: danielbd;"><tspan x="15">Spatio Temporal Prediction</tspan></text></g><g class="actor"><path d="M10,52.5C63.0,55.0 58.0,50.0 73.1,52.5C71.4,72.6 74.8,70.9 73.1,95.0C63.0,97.5 26.9,92.5 10.0,95.0C8.3,63.6 11.7,68.5 10.0,52.5" stroke="#000000" fill="#ffffff" style="stroke-width: 2;"></path><text x="20" y="76.5" style="font-size: 16px; font-family: danielbd;"><tspan x="20">Data</tspan></text></g><g class="actor"><path d="M10,515.9000015258789C20.1,513.4 25.1,518.4 73.1,515.9C71.4,529.0 74.8,536.5 73.1,558.4C58.0,555.9 60.3,560.9 10.0,558.4C11.7,532.5 8.3,545.4 10.0,515.9" stroke="#000000" fill="#ffffff" style="stroke-width: 2;"></path><text x="20" y="539.9000015258789" style="font-size: 16px; font-family: danielbd;"><tspan x="20">Data</tspan></text></g><path d="M41.6,95.0C58.4,259.0 24.7,202.4 41.6,515.9" stroke="#000000" fill="none" style="stroke-width: 2;"></path><g class="actor"><path d="M102.3671875,52.5C147.9,54.7 111.0,50.3 156.6,52.5C158.3,74.6 154.9,88.2 156.6,95.0C118.0,92.8 143.6,97.2 102.4,95.0C104.1,59.3 100.7,88.2 102.4,52.5" stroke="#000000" fill="#ffffff" style="stroke-width: 2;"></path><text x="112.3671875" y="76.5" style="font-size: 16px; font-family: danielbd;"><tspan x="112.3671875">Krig</tspan></text></g><g class="actor"><path d="M102.3671875,515.9000015258789C143.7,513.7 131.0,518.1 156.6,515.9C158.3,546.6 154.9,523.0 156.6,558.4C115.4,560.6 143.6,556.2 102.4,558.4C104.1,548.4 100.7,544.2 102.4,515.9" stroke="#000000" fill="#ffffff" style="stroke-width: 2;"></path><text x="112.3671875" y="539.9000015258789" style="font-size: 16px; font-family: danielbd;"><tspan x="112.3671875">Krig</tspan></text></g><path d="M129.5,95.0C112.6,448.6 146.3,230.5 129.5,515.9" stroke="#000000" fill="none" style="stroke-width: 2;"></path><g class="actor"><path d="M278.28515625,52.5C337.7,48.7 300.9,56.3 372.3,52.5C374.0,83.4 370.6,67.2 372.3,95.0C349.8,91.2 300.9,98.8 278.3,95.0C280.0,66.2 276.6,82.0 278.3,52.5" stroke="#000000" fill="#ffffff" style="stroke-width: 2;"></path><text x="288.28515625" y="76.5" style="font-size: 16px; font-family: danielbd;"><tspan x="288.28515625">Forecast</tspan></text></g><g class="actor"><path d="M278.28515625,515.9000015258789C293.3,519.7 307.8,512.1 372.3,515.9C374.0,551.6 370.6,522.7 372.3,558.4C344.7,554.6 349.8,562.2 278.3,558.4C276.6,526.1 280.0,548.2 278.3,515.9" stroke="#000000" fill="#ffffff" style="stroke-width: 2;"></path><text x="288.28515625" y="539.9000015258789" style="font-size: 16px; font-family: danielbd;"><tspan x="288.28515625">Forecast</tspan></text></g><path d="M325.3,95.0C342.1,162.3 308.5,302.1 325.3,515.9" stroke="#000000" fill="none" style="stroke-width: 2;"></path><g class="actor"><path d="M418.37109375,52.5C479.5,42.4 479.2,62.6 671.9,52.5C673.6,82.9 670.2,75.4 671.9,95.0C553.5,105.1 479.2,84.9 418.4,95.0C416.7,88.2 420.1,70.5 418.4,52.5" stroke="#000000" fill="#ffffff" style="stroke-width: 2;"></path><text x="428.40234375" y="76.5" style="font-size: 16px; font-family: danielbd;"><tspan x="428.37109375">Spatio Temporal Prediction</tspan></text></g><g class="actor"><path d="M418.37109375,515.9000015258789C479.2,526.0 611.0,505.8 671.9,515.9C670.2,527.4 673.6,547.2 671.9,558.4C533.5,548.3 506.0,568.5 418.4,558.4C420.1,551.6 416.7,522.7 418.4,515.9" stroke="#000000" fill="#ffffff" style="stroke-width: 2;"></path><text x="428.40234375" y="539.9000015258789" style="font-size: 16px; font-family: danielbd;"><tspan x="428.37109375">Spatio Temporal Prediction</tspan></text></g><path d="M545.1,95.0C562.0,340.4 528.3,414.9 545.1,515.9" stroke="#000000" fill="none" style="stroke-width: 2;"></path><g class="actor"><path d="M691.86328125,52.5C717.9,59.0 730.9,46.0 854.3,52.5C856.0,84.8 852.6,88.2 854.3,95.0C825.6,88.5 797.6,101.5 691.9,95.0C693.6,62.7 690.2,68.6 691.9,52.5" stroke="#000000" fill="#ffffff" style="stroke-width: 2;"></path><text x="701.86328125" y="76.5" style="font-size: 16px; font-family: danielbd;"><tspan x="701.86328125">Map and Report</tspan></text></g><g class="actor"><path d="M691.86328125,515.9000015258789C802.0,522.4 730.9,509.4 854.3,515.9C856.0,542.0 852.6,531.0 854.3,558.4C781.6,564.9 717.9,551.9 691.9,558.4C693.6,551.5 690.2,547.9 691.9,515.9" stroke="#000000" fill="#ffffff" style="stroke-width: 2;"></path><text x="701.86328125" y="539.9000015258789" style="font-size: 16px; font-family: danielbd;"><tspan x="701.86328125">Map and Report</tspan></text></g><path d="M773.1,95.0C756.3,303.4 789.9,334.4 773.1,515.9" stroke="#000000" fill="none" style="stroke-width: 2;"></path><g class="signal"><text x="85.509765625" y="120" style="font-size: 16px; font-family: danielbd;"><tspan x="85.509765625"></tspan></text><path d="M41.6,115.0C92.3,111.5 62.7,118.5 129.5,115.0" stroke="#000000" fill="none" style="stroke-width: 2; marker-end: url(&quot;#markerArrowOpen&quot;);"></path></g><g class="note"><path d="M51.55078125,135C179.2,141.2 129.3,128.8 207.4,135.0C206.1,159.7 208.7,162.3 207.4,167.5C147.6,173.7 131.1,161.3 51.6,167.5C50.3,151.1 52.9,146.4 51.6,135.0" stroke="#000000" fill="#ffffff" style="stroke-width: 2;"></path><text x="56.55078125" y="154" style="font-size: 16px; font-family: danielbd;"><tspan x="56.55078125">spatial prediction</tspan></text></g><g class="signal"><text x="227.38671875" y="192.5" style="font-size: 16px; font-family: danielbd;"><tspan x="227.38671875"></tspan></text><path d="M129.5,187.5C217.7,179.7 253.3,195.3 325.3,187.5" stroke="#000000" fill="none" style="stroke-width: 2; marker-end: url(&quot;#markerArrowOpen&quot;);"></path></g><g class="note"><path d="M235.3984375,207.5C370.7,214.7 371.6,200.3 415.2,207.5C416.5,229.1 413.9,234.8 415.2,240.0C363.6,247.2 378.1,232.8 235.4,240.0C236.7,223.5 234.1,231.7 235.4,207.5" stroke="#000000" fill="#ffffff" style="stroke-width: 2;"></path><text x="240.6796875" y="226.5" style="font-size: 16px; font-family: danielbd;"><tspan x="240.3984375">temporal prediction</tspan></text></g><g class="signal"><text x="183.427734375" y="265" style="font-size: 16px; font-family: danielbd;"><tspan x="183.427734375"></tspan></text><path d="M41.6,260.0C188.6,271.4 109.7,248.6 325.3,260.0" stroke="#000000" fill="none" style="stroke-width: 2; marker-end: url(&quot;#markerArrowOpen&quot;);"></path></g><g class="signal"><text x="435.2109375" y="285" style="font-size: 16px; font-family: danielbd;"><tspan x="435.2109375"></tspan></text><path d="M325.3,280.0C484.1,271.2 378.1,288.8 545.1,280.0" stroke="#000000" fill="none" style="stroke-width: 2; marker-end: url(&quot;#markerArrowOpen&quot;);"></path></g><g class="signal"><text x="659.103515625" y="305" style="font-size: 16px; font-family: danielbd;"><tspan x="659.103515625"></tspan></text><path d="M545.1,300.0C683.3,290.9 599.8,309.1 773.1,300.0" stroke="#000000" fill="none" style="stroke-width: 2; marker-end: url(&quot;#markerArrowOpen&quot;);"></path></g><g class="note"><path d="M149.46875,320C208.5,313.8 174.4,326.2 305.3,320.0C303.2,342.9 307.4,328.3 305.3,371.7C188.5,377.9 238.5,365.5 149.5,371.7C147.4,332.4 151.5,359.3 149.5,320.0" stroke="#000000" fill="#ffffff" style="stroke-width: 2;"></path><text x="154.46875" y="339" style="font-size: 16px; font-family: danielbd;"><tspan x="154.46875">verify</tspan><tspan dy="1.2em" x="154.46875">spatial prediction</tspan></text></g><g class="note"><path d="M345.3046875,391.70000076293945C496.3,384.5 466.6,398.9 525.1,391.7C527.2,410.7 523.0,404.8 525.1,443.4C416.2,450.6 395.3,436.2 345.3,443.4C343.2,407.6 347.4,410.3 345.3,391.7" stroke="#000000" fill="#ffffff" style="stroke-width: 2;"></path><text x="350.5859375" y="410.70000076293945" style="font-size: 16px; font-family: danielbd;"><tspan x="350.3046875">verify</tspan><tspan dy="1.2em" x="350.3046875">temporal prediction</tspan></text></g><g class="note"><path d="M793.08984375,463.4000015258789C936.5,456.4 831.4,470.4 967.8,463.4C966.5,475.3 969.1,468.9 967.8,495.9C821.0,488.9 835.0,502.9 793.1,495.9C791.8,471.2 794.4,488.1 793.1,463.4" stroke="#000000" fill="#ffffff" style="stroke-width: 2;"></path><text x="798.08984375" y="482.4000015258789" style="font-size: 16px; font-family: danielbd;"><tspan x="798.08984375">End user Interface</tspan></text></g></svg>